<?xml version="1.0" standalone="no"?>
<!DOCTYPE svg PUBLIC "-//W3C//DTD SVG 20010904//EN"
 "http://www.w3.org/TR/2001/REC-SVG-20010904/DTD/svg10.dtd">
<svg version="1.0" xmlns="http://www.w3.org/2000/svg"
 width="260.000000pt" height="260.000000pt" viewBox="0 0 260.000000 260.000000"
 preserveAspectRatio="xMidYMid meet">
<metadata>
Created by potrace 1.11, written by Peter Selinger 2001-2013
</metadata>
<g transform="translate(0.000000,260.000000) scale(0.100000,-0.100000)"
fill="#000000" stroke="none">
<path d="M975 2576 c-216 -57 -376 -156 -496 -306 -58 -72 -119 -195 -140
-280 -18 -70 -18 -269 0 -340 25 -106 96 -235 173 -316 122 -128 171 -155 633
-343 270 -110 308 -138 307 -223 -1 -78 -70 -131 -186 -143 -61 -7 -68 -5
-149 34 -47 23 -120 67 -163 97 l-79 54 -32 -36 -32 -36 -53 32 c-29 18 -73
48 -97 66 l-43 33 -190 -227 c-104 -125 -192 -233 -195 -240 -8 -18 25 -50
116 -115 159 -115 354 -197 559 -237 230 -44 624 -57 787 -26 101 19 238 71
326 123 253 148 391 403 376 693 -11 202 -57 312 -186 440 -108 107 -168 141
-411 236 -448 176 -488 194 -521 247 -42 69 -11 153 71 195 24 12 60 22 80 22
46 -1 148 -45 238 -103 40 -26 77 -47 81 -47 5 0 24 18 41 40 17 22 35 40 39
40 4 0 46 -23 92 -51 l84 -50 19 23 c112 137 306 388 306 395 0 5 -26 31 -57
57 -166 140 -350 222 -588 261 -49 8 -115 22 -145 31 -41 12 -109 18 -265 20
-196 4 -216 2 -300 -20z m405 -15 l45 -7 -71 -7 c-39 -4 -110 -18 -158 -32
-240 -70 -435 -223 -531 -419 -130 -262 -87 -573 108 -782 117 -125 172 -157
507 -294 290 -118 382 -163 415 -202 24 -29 27 -38 23 -90 -5 -68 -29 -100
-96 -130 -50 -23 -193 -34 -262 -21 l-45 9 51 17 c127 43 172 191 85 281 -38
39 -96 67 -420 201 -285 117 -363 160 -455 246 -150 140 -230 346 -212 546 31
345 340 631 738 682 80 11 220 12 278 2z m328 -603 c39 -12 72 -23 72 -25 0
-3 -8 -15 -19 -28 -17 -23 -19 -23 -42 -7 -13 9 -55 34 -94 54 -67 36 -68 37
-30 32 22 -3 73 -15 113 -26z m-929 -1254 c2 -2 -61 -80 -140 -175 l-143 -172
44 -39 c86 -75 186 -135 360 -216 23 -11 22 -12 -10 -6 -156 28 -391 132 -522
231 -42 32 -78 61 -80 65 -2 4 73 99 166 211 l169 205 76 -51 c42 -27 78 -52
80 -53z"/>
</g>
</svg>
