<svg xmlns="http://www.w3.org/2000/svg" width="300" height="200" viewBox="0 0 300 200"><defs><style>.cls-1{fill:#ffec00;}.cls-2,.cls-3,.cls-4,.cls-5,.cls-6,.cls-7,.cls-8{fill:none;stroke:#000;stroke-miterlimit:10;}.cls-2{stroke-width:3.68px;}.cls-3{stroke-width:3.64px;}.cls-4{stroke-width:3.55px;}.cls-5{stroke-width:1.84px;}.cls-6{stroke-width:1.66px;}.cls-7{stroke-width:1.38px;}.cls-8{stroke-width:2.02px;}</style></defs><title>evner</title><g id="Lag_2" data-name="Lag 2"><path class="cls-1" d="M222.79,83.9A69.89,69.89,0,0,0,83,83.9a71,71,0,0,1-16.55,25.75c-8.89,8.89,7.29,13,13.91,14.27A3.24,3.24,0,0,1,83,127.1l-1.84,15.66c0,7.58-3.67,16.55,7.36,16.55s23.91-3.68,25.75,1.84-3.68,25.74,5.52,25.74h53.32s0,0,0,0c0-.38,2.94-25.94,12.89-41.43A69.89,69.89,0,0,0,222.79,83.9Z"/><path class="cls-2" d="M215.43,78.39a69.89,69.89,0,1,0-139.77,0,71.14,71.14,0,0,1-16.55,25.74c-8.89,8.89,7.28,13,13.91,14.27a3.24,3.24,0,0,1,2.64,3.18l-1.84,15.66c0,7.58-3.68,16.55,7.35,16.55s23.91-3.68,25.75,1.84-3.68,25.75,5.52,25.75h53.33c0-.38,2.94-25.94,12.89-41.43A69.88,69.88,0,0,0,215.43,78.39Z"/><path class="cls-3" d="M233.82,89.28c0-30.5-25.29-55-55.76-53.09C151.17,37.89,129.63,60.69,129,88a53.4,53.4,0,0,0,14.8,38.3A35.53,35.53,0,0,1,153.69,148l.41,5a3.28,3.28,0,0,0,2.45,2.92l1.9.48a4.12,4.12,0,0,1,3.08,4v22.49a2.73,2.73,0,0,0,1.69,2.55,50.84,50.84,0,0,0,36.29,0,2.82,2.82,0,0,0,1.78-2.65V159.05a1.9,1.9,0,0,1,1.88-1.91h2.66a2.71,2.71,0,0,0,2.69-2.73h0a42.87,42.87,0,0,1,11.3-28.94A53.42,53.42,0,0,0,233.82,89.28Z"/><path class="cls-1" d="M237.5,89.42a53.33,53.33,0,1,0-91.59,37.15A35.39,35.39,0,0,1,156,148.26l.42,5a3.3,3.3,0,0,0,2.49,2.92l1.94.49a4.14,4.14,0,0,1,3.13,4v22.54a2.73,2.73,0,0,0,1.72,2.56,52.47,52.47,0,0,0,36.93,0,2.85,2.85,0,0,0,1.81-2.66V159.38a1.91,1.91,0,0,1,1.91-1.91H209a2.74,2.74,0,0,0,2.74-2.74h0a42.67,42.67,0,0,1,11.5-29A53.15,53.15,0,0,0,237.5,89.42Z"/><path class="cls-2" d="M184.17,72.87c.55-23.81,28.81-40.16,49-42.24a.59.59,0,0,1,.66.58c.21,5.51-.07,44.68-48.46,45.33a.62.62,0,0,1-.53-1c3.7-5.17,21.54-29.24,37.93-35.79"/><path class="cls-4" d="M228.79,87.34c-5.63-.68-27.14-.8-42.4,33.71a25,25,0,0,0-2.13,7.78,11.76,11.76,0,0,0,.62,5.84c1.72,3.58,51.13-5.23,45.51-45.7A1.88,1.88,0,0,0,228.79,87.34Z"/><path class="cls-2" d="M184.17,133.56s22.06-31.26,34.94-34.94"/><path class="cls-2" d="M182.16,109.88s6.14-38.3-42.1-42.65a1.87,1.87,0,0,0-2,1.63c-.87,7.44-1.38,36.09,41.45,41.07a.74.74,0,0,0,.83-.73c-.05-4.13-2.12-22.84-34-33.49"/><path class="cls-5" d="M202.56,162.07c0,.5-8.24,2.76-18.39,2.76s-18.4-2.26-18.4-2.76,8.24.92,18.4.92S202.56,161.56,202.56,162.07Z"/><path class="cls-6" d="M200.72,171.54c0,.46-7.41,2.48-16.55,2.48s-16.56-2-16.56-2.48,7.41.83,16.56.83S200.72,171.08,200.72,171.54Z"/><path class="cls-7" d="M198.88,179.31c0,.38-6.18,2.07-13.79,2.07s-13.8-1.69-13.8-2.07,6.18.69,13.8.69S198.88,178.93,198.88,179.31Z"/><path class="cls-8" d="M183.25,115.17c0,24.38.5,44.14,0,44.14s-1.84-19.76-1.84-44.14S182.74,71,183.25,71,183.25,90.79,183.25,115.17Z"/></g></svg>
