<svg xmlns="http://www.w3.org/2000/svg" width="300" height="200" viewBox="0 0 300 200"><defs><style>.cls-1,.cls-3{fill:#ffec00;}.cls-2{fill:none;}.cls-2,.cls-3,.cls-4{stroke:#000;stroke-miterlimit:10;}.cls-2,.cls-3{stroke-width:2px;}.cls-4{stroke-width:0.77px;}</style></defs><title>evner</title><g id="Lag_2" data-name="Lag 2"><path class="cls-1" d="M222.79,83.9A69.89,69.89,0,0,0,83,83.9a71,71,0,0,1-16.55,25.75c-8.89,8.89,7.29,13,13.91,14.27A3.24,3.24,0,0,1,83,127.1l-1.84,15.66c0,7.58-3.67,16.55,7.36,16.55s23.91-3.68,25.75,1.84-3.68,25.74,5.52,25.74h53.32s0,0,0,0c0-.38,2.94-25.94,12.89-41.43A69.89,69.89,0,0,0,222.79,83.9Z"/><path class="cls-2" d="M218.43,77.51a69.89,69.89,0,1,0-139.77,0,71.22,71.22,0,0,1-16.55,25.75c-8.89,8.89,7.28,13,13.91,14.27a3.23,3.23,0,0,1,2.64,3.17l-1.84,15.66c0,7.58-3.68,16.55,7.35,16.55s23.91-3.68,25.75,1.84-3.68,25.75,5.52,25.75h53.33c0-.39,2.94-25.95,12.89-41.44A69.87,69.87,0,0,0,218.43,77.51Z"/><path class="cls-3" d="M222.82,87.9c0-30.62-25.41-55.22-56-53.29-27,1.7-48.66,24.59-49.29,52a53.6,53.6,0,0,0,14.88,38.45,35.72,35.72,0,0,1,9.93,21.72l.41,5a3.3,3.3,0,0,0,2.46,2.94l1.91.48a4.13,4.13,0,0,1,3.09,4v22.58a2.75,2.75,0,0,0,1.7,2.56,51.13,51.13,0,0,0,36.46,0,2.84,2.84,0,0,0,1.79-2.66V157.94A1.9,1.9,0,0,1,192,156h2.67a2.72,2.72,0,0,0,2.7-2.74h0a43,43,0,0,1,11.35-29A53.62,53.62,0,0,0,222.82,87.9Z"/><path class="cls-4" d="M184,179c0,.23-6.3,2.5-13.91,2.5S156,179.23,156,179s6.47,1.68,14.09,1.68S184,178.77,184,179Z"/><path class="cls-4" d="M184,170c0,.23-6.3,2.5-13.91,2.5S156,170.23,156,170s6.47,1.68,14.09,1.68S184,169.77,184,170Z"/><path class="cls-4" d="M184,161c0,.23-6.3,2.5-13.91,2.5S156,161.23,156,161s6.47,1.68,14.09,1.68S184,160.77,184,161Z"/><path class="cls-2" d="M170.5,155.5s-5.23-16.66,5-32c8-12-12-17-13-23"/><path class="cls-2" d="M162,99.89s3.43,16.44-27.87,5.06C134.12,105,151.94,85.37,162,99.89Z"/><path class="cls-2" d="M177.64,114.1s2.93,16.54,27.75-5.66C205.39,108.44,181.57,96.88,177.64,114.1Z"/><path class="cls-2" d="M157.5,94.5s-4-12,9-18c0,0,9,13-1,25"/><rect x="155.73" y="48.56" width="2" height="19.89" rx="0.95" transform="translate(-10.23 69.09) rotate(-24.1)"/><rect x="198.84" y="64.71" width="2" height="20.43" rx="0.97" transform="translate(211.56 -138.18) rotate(72.6)"/><rect x="182.2" y="48.95" width="2" height="20.21" rx="0.96" transform="translate(47.08 -77.04) rotate(27.13)"/></g></svg>
