<svg xmlns="http://www.w3.org/2000/svg" width="150" height="150" viewBox="0 0 150 150"><defs><style>.cls-1{fill:#ffec00;}.cls-2{fill:none;stroke:#000;stroke-miterlimit:10;stroke-width:2px;}</style></defs><title>in</title><g id="Lag_2" data-name="Lag 2"><path class="cls-1" d="M31.92,39.48A16.41,16.41,0,0,1,20.6,35.54a13,13,0,0,1-4.43-10.17A13,13,0,0,1,20.6,15.2a16.41,16.41,0,0,1,11.32-3.93A16.4,16.4,0,0,1,43.23,15.2a13,13,0,0,1,4.43,10.17,13,13,0,0,1-4.43,10.17A16.4,16.4,0,0,1,31.92,39.48ZM17.81,131.64v-82H46v82Z"/><path class="cls-1" d="M55.7,131.64v-82h23l2,9.84h.66A53.76,53.76,0,0,1,92.51,51.2a29.64,29.64,0,0,1,14.68-3.52q13.45,0,19.52,9.1t6.07,24.35v50.51H104.57V84.74q0-7.87-2-10.5c-1.31-1.74-3.39-2.62-6.23-2.62a12.18,12.18,0,0,0-6.56,1.64,43.64,43.64,0,0,0-5.91,4.59v53.79Z"/><path class="cls-2" d="M26.92,36.48A16.41,16.41,0,0,1,15.6,32.54a13,13,0,0,1-4.43-10.17A13,13,0,0,1,15.6,12.2,16.41,16.41,0,0,1,26.92,8.27,16.4,16.4,0,0,1,38.23,12.2a13,13,0,0,1,4.43,10.17,13,13,0,0,1-4.43,10.17A16.4,16.4,0,0,1,26.92,36.48ZM12.81,128.64v-82H41v82Z"/><path class="cls-2" d="M50.7,128.64v-82h23l2,9.84h.66A53.76,53.76,0,0,1,87.51,48.2a29.64,29.64,0,0,1,14.68-3.52q13.45,0,19.52,9.1t6.07,24.35v50.51H99.57V81.74q0-7.87-2-10.5c-1.31-1.74-3.39-2.62-6.23-2.62a12.18,12.18,0,0,0-6.56,1.64,43.64,43.64,0,0,0-5.91,4.59v53.79Z"/></g></svg>
