<svg id="Lag_1" data-name="Lag 1" xmlns="http://www.w3.org/2000/svg" width="500" height="200" viewBox="0 0 500 200"><defs><style>.cls-1{fill:none;stroke:#000;stroke-miterlimit:10;stroke-width:4px;}</style></defs><title>kontur_navn</title><path class="cls-1" d="M79.23,153.61a77.93,77.93,0,0,1-25.37-4.48,67.56,67.56,0,0,1-23.58-14l19.5-23.48a65.69,65.69,0,0,0,15,9A38.35,38.35,0,0,0,80,124.15q7.75,0,11.24-2.38A7.74,7.74,0,0,0,94.75,115a6.48,6.48,0,0,0-1.19-4,12.22,12.22,0,0,0-3.48-3,38.4,38.4,0,0,0-5.48-2.69q-3.18-1.29-7.36-2.89L61.12,95.7a47.88,47.88,0,0,1-9.95-5.28,38.55,38.55,0,0,1-8.36-7.76,35.52,35.52,0,0,1-5.67-10.25,37.19,37.19,0,0,1-2.09-12.73,34.94,34.94,0,0,1,3.58-15.62,40.17,40.17,0,0,1,9.95-12.74,48.13,48.13,0,0,1,15.23-8.66,57,57,0,0,1,19.4-3.18,65.46,65.46,0,0,1,22.59,4.18,55.63,55.63,0,0,1,20.39,13.13l-17.11,21.5a62.1,62.1,0,0,0-12.64-7,35.85,35.85,0,0,0-13.23-2.39q-6.37,0-9.95,2.19a7.19,7.19,0,0,0-3.58,6.57q0,4.58,5.07,7.06t14,5.87l15.72,6.17q12.14,4.78,18.71,13.34t6.57,22.08a38.38,38.38,0,0,1-13.24,29,48.79,48.79,0,0,1-15.82,9.05A62.9,62.9,0,0,1,79.23,153.61Z"/><path class="cls-1" d="M153.46,39.38q-8.37,0-13.74-4.77a15.77,15.77,0,0,1-5.37-12.34,15.75,15.75,0,0,1,5.37-12.34q5.39-4.78,13.74-4.78t13.73,4.78a15.75,15.75,0,0,1,5.37,12.34,15.77,15.77,0,0,1-5.37,12.34Q161.82,39.38,153.46,39.38ZM136.34,151.22V51.72h34.23v99.5Z"/><path class="cls-1" d="M218.53,192.21a95.82,95.82,0,0,1-16.12-1.29,44.52,44.52,0,0,1-13.23-4.28,25.78,25.78,0,0,1-9.06-7.66,19,19,0,0,1-3.38-11.44q0-11.74,13.93-19.11v-.79a24.32,24.32,0,0,1-6.57-6.77q-2.58-4-2.59-10.35a19.53,19.53,0,0,1,3-10.15,27.83,27.83,0,0,1,8.16-8.55V111a32.48,32.48,0,0,1-9.45-10.15,28.34,28.34,0,0,1-4.09-15.32,34.15,34.15,0,0,1,3.59-16,33,33,0,0,1,9.55-11.34,41.36,41.36,0,0,1,13.63-6.67,57.28,57.28,0,0,1,15.82-2.19,50.15,50.15,0,0,1,15.92,2.39h37V76.39H260.32A33.52,33.52,0,0,1,261.41,81a32.94,32.94,0,0,1,.5,5.77,32.89,32.89,0,0,1-3.18,15A28.87,28.87,0,0,1,250.17,112a36.36,36.36,0,0,1-12.74,5.87,63.05,63.05,0,0,1-15.72,1.89,51,51,0,0,1-11.14-1.4,6.61,6.61,0,0,0-2,2.49,10.07,10.07,0,0,0-.4,3.28,4.68,4.68,0,0,0,3.18,4.68c2.12.87,5.71,1.29,10.75,1.29H237q18.69,0,29,6.07T276.24,156a27.87,27.87,0,0,1-4.08,14.83,35.93,35.93,0,0,1-11.54,11.44,59.57,59.57,0,0,1-18.11,7.37A102.13,102.13,0,0,1,218.53,192.21Zm5.57-21.09A34.21,34.21,0,0,0,238,168.63q5.57-2.49,5.57-6.67,0-4-3.48-5a37.4,37.4,0,0,0-9.85-1h-7.76q-6,0-9.06-.29a31.82,31.82,0,0,1-5.27-.9,16.3,16.3,0,0,0-2.69,3.38,7.66,7.66,0,0,0-.89,3.78q0,4.78,5.37,7T224.1,171.12Zm-2.39-71.64a9.87,9.87,0,0,0,7.76-3.38q3-3.39,3-10.55,0-7-3-10.25a10.82,10.82,0,0,0-15.52,0q-3,3.28-3,10.25,0,7.15,3,10.55A9.88,9.88,0,0,0,221.71,99.48Z"/><path class="cls-1" d="M279.62,151.22V51.72h27.86l2.39,11.94h.79a65.31,65.31,0,0,1,13.63-10,36,36,0,0,1,17.81-4.28q16.32,0,23.69,11.05t7.36,29.55v61.29H338.92V94.3q0-9.54-2.39-12.73c-1.59-2.12-4.11-3.19-7.56-3.19a14.74,14.74,0,0,0-8,2A52.52,52.52,0,0,0,313.85,86v65.27Z"/><path class="cls-1" d="M430.26,153.61a57.78,57.78,0,0,1-20.3-3.49A45.93,45.93,0,0,1,393.74,140a47.58,47.58,0,0,1-10.84-16.41,57.87,57.87,0,0,1-4-22.09A55.5,55.5,0,0,1,383,79.68a51.62,51.62,0,0,1,10.74-16.42A46.44,46.44,0,0,1,409,52.91a45.62,45.62,0,0,1,17.72-3.58,45.05,45.05,0,0,1,19.1,3.78,37.58,37.58,0,0,1,13.53,10.35,44.62,44.62,0,0,1,8.06,15.32,63.54,63.54,0,0,1,2.69,18.71,69.58,69.58,0,0,1-.5,8.56q-.49,4-.89,5.77H412q2.39,9,8.56,12.43A29,29,0,0,0,435,127.74a34,34,0,0,0,10.05-1.5,53.15,53.15,0,0,0,10.25-4.47l11.15,20.29a60.25,60.25,0,0,1-18,8.66A65.29,65.29,0,0,1,430.26,153.61ZM411.55,89.53H441a17.56,17.56,0,0,0-2.88-10c-1.93-2.85-5.47-4.28-10.65-4.28a15.74,15.74,0,0,0-10.05,3.38Q413.15,82,411.55,89.53Z"/></svg>
