<svg id="Lag_1" data-name="Lag 1" xmlns="http://www.w3.org/2000/svg" width="350" height="150" viewBox="0 0 350 150"><defs><style>.cls-1{fill:#ffec00;}.cls-2{fill:none;stroke:#000;stroke-miterlimit:10;stroke-width:2.04px;}</style></defs><title>Logo</title><path class="cls-1" d="M57.69,146a79.12,79.12,0,0,1-25.86-4.57,68.74,68.74,0,0,1-24-14.3l19.88-23.94A67,67,0,0,0,43,112.43,39.33,39.33,0,0,0,58.5,116q7.92,0,11.47-2.44a7.89,7.89,0,0,0,3.55-6.9,6.56,6.56,0,0,0-1.22-4,12.61,12.61,0,0,0-3.55-3,40.41,40.41,0,0,0-5.58-2.73q-3.26-1.32-7.51-3L39.23,87a48.5,48.5,0,0,1-10.14-5.38,39.34,39.34,0,0,1-8.52-7.91,36.29,36.29,0,0,1-5.78-10.45,37.88,37.88,0,0,1-2.13-13,35.48,35.48,0,0,1,3.65-15.93,40.75,40.75,0,0,1,10.14-13A49.05,49.05,0,0,1,42,12.51,58.17,58.17,0,0,1,61.75,9.27a66.77,66.77,0,0,1,23,4.26,56.6,56.6,0,0,1,20.8,13.39L88.12,48.83a63.25,63.25,0,0,0-12.88-7.1,36.4,36.4,0,0,0-13.49-2.44q-6.49,0-10.14,2.23A7.35,7.35,0,0,0,48,48.22q0,4.66,5.18,7.2t14.3,6l16,6.29q12.36,4.88,19.06,13.6t6.7,22.51a39.11,39.11,0,0,1-13.49,29.52,50,50,0,0,1-16.13,9.23A64.22,64.22,0,0,1,57.69,146Z"/><path class="cls-1" d="M118.75,143.56V11.7h34.89V60.8H193V11.7h34.89V143.56H193V91.23H153.64v52.33Z"/><path class="cls-1" d="M245.54,143.56V11.7H293a117.92,117.92,0,0,1,19.48,1.53,49.81,49.81,0,0,1,15.82,5.17,28.16,28.16,0,0,1,10.65,10q4,6.39,4,16.13a32,32,0,0,1-1.22,8.62,40.35,40.35,0,0,1-3.35,8.32,30,30,0,0,1-5.17,7,19.1,19.1,0,0,1-6.9,4.46v.81A34.4,34.4,0,0,1,342.41,84q6.58,7.41,6.59,20.6a34.28,34.28,0,0,1-15.32,29.71,48.55,48.55,0,0,1-16.53,7,87.77,87.77,0,0,1-20.08,2.23Zm34.89-80.33H292.2q8.52,0,12.58-3.65a12.46,12.46,0,0,0,4.05-9.74q0-6.09-4.05-8.72T292.2,38.48H280.43Zm0,53.56h14.2q20.3,0,20.29-14.61,0-7.31-5-10.35t-15.32-3h-14.2Z"/><path class="cls-2" d="M50.58,139.9a79.47,79.47,0,0,1-25.87-4.56A68.83,68.83,0,0,1,.67,121L20.55,97.1a66.81,66.81,0,0,0,15.32,9.23,39.16,39.16,0,0,0,15.52,3.55q7.9,0,11.46-2.44a7.88,7.88,0,0,0,3.55-6.89,6.57,6.57,0,0,0-1.22-4.06,12.43,12.43,0,0,0-3.55-3,38.75,38.75,0,0,0-5.58-2.74q-3.24-1.32-7.5-2.94l-16.43-6.9A48.82,48.82,0,0,1,22,75.49a39.81,39.81,0,0,1-8.52-7.91A36.4,36.4,0,0,1,7.67,57.13a37.84,37.84,0,0,1-2.13-13A35.57,35.57,0,0,1,9.19,28.23a40.82,40.82,0,0,1,10.14-13A48.84,48.84,0,0,1,34.85,6.42,58.17,58.17,0,0,1,54.63,3.17a66.82,66.82,0,0,1,23,4.26A56.69,56.69,0,0,1,98.45,20.82L81,42.73a63.31,63.31,0,0,0-12.89-7.1A36.56,36.56,0,0,0,54.63,33.2q-6.5,0-10.14,2.23a7.32,7.32,0,0,0-3.65,6.69q0,4.66,5.17,7.2t14.3,6l16,6.29q12.38,4.86,19.07,13.59t6.69,22.52a39.11,39.11,0,0,1-13.49,29.51,49.73,49.73,0,0,1-16.13,9.23A64.16,64.16,0,0,1,50.58,139.9Z"/><path class="cls-2" d="M111.64,137.47V5.61h34.89V54.7h39.35V5.61h34.9V137.47h-34.9V85.13H146.53v52.34Z"/><path class="cls-2" d="M238.42,137.47V5.61h47.47a118,118,0,0,1,19.48,1.52,50.06,50.06,0,0,1,15.82,5.17,28.24,28.24,0,0,1,10.65,10q4,6.39,4,16.13a32,32,0,0,1-1.22,8.62,40.35,40.35,0,0,1-3.35,8.32,29.75,29.75,0,0,1-5.17,7,18.84,18.84,0,0,1-6.9,4.46v.81a34.34,34.34,0,0,1,16.13,10.25q6.58,7.41,6.59,20.59a35.32,35.32,0,0,1-4.15,17.55,35.87,35.87,0,0,1-11.16,12.17,48.89,48.89,0,0,1-16.54,7A87.71,87.71,0,0,1,290,137.47Zm34.9-80.34h11.76q8.52,0,12.58-3.65a12.47,12.47,0,0,0,4.06-9.73q0-6.09-4.06-8.73c-2.71-1.75-6.9-2.64-12.58-2.64H273.32Zm0,53.56h14.2q20.28,0,20.28-14.61,0-7.31-5-10.34t-15.31-3h-14.2Z"/></svg>
