<svg xmlns="http://www.w3.org/2000/svg" viewBox="0 0 300 200"><defs><style>.cls-1{fill:#ffec00;}.cls-2,.cls-3{fill:none;}.cls-2,.cls-3,.cls-4{stroke:#000;stroke-miterlimit:10;}.cls-2{stroke-width:3px;}.cls-3,.cls-4{stroke-width:2px;}.cls-4{fill:#fff;}</style></defs><title>værktøjer</title><g id="Lag_2" data-name="Lag 2"><path class="cls-1" d="M135.21,153.72s1.28,17.36-9.22,21.07,48.51.71,48.51.71-14.26-9.25-11.63-21.13S135.21,153.72,135.21,153.72Z"/><path class="cls-1" d="M63.5,127.5h172a0,0,0,0,1,0,0v18a7,7,0,0,1-7,7H73.21a9.71,9.71,0,0,1-9.71-9.71V127.5A0,0,0,0,1,63.5,127.5Z"/><path class="cls-1" d="M71.27,33.5H226.52a9,9,0,0,1,9,9v7a0,0,0,0,1,0,0H63.5a0,0,0,0,1,0,0V41.27A7.77,7.77,0,0,1,71.27,33.5Z"/><rect class="cls-2" x="62.5" y="33.5" width="174" height="120" rx="12.57"/><rect x="113.5" y="175.5" width="72" height="3" rx="1.5"/><circle class="cls-3" cx="149.5" cy="91.5" r="40.5"/><path class="cls-1" d="M193.22,44.19l-10.56.7a4.9,4.9,0,0,0-2.91,1.21L134.4,85.78a5.39,5.39,0,0,0-1.76,3L131,97l.34.34a1.66,1.66,0,0,0-1.9-.32l-19.7,9.62a1.66,1.66,0,0,0-.9,1.16L103,137l.32-.07,27.84-5.76a1.62,1.62,0,0,0,1.18-1L141.55,109a1.67,1.67,0,0,0-.35-1.84l-.2-.2,8.7-.79a6,6,0,0,0,3.86-1.91l40.24-44a5.08,5.08,0,0,0,1.32-3.08l.69-10.45A2.43,2.43,0,0,0,193.22,44.19Z"/><path class="cls-3" d="M192.22,41.19l-10.56.7a4.9,4.9,0,0,0-2.91,1.21L133.4,82.78a5.39,5.39,0,0,0-1.76,3L130,94l.34.34a1.66,1.66,0,0,0-1.9-.32l-19.7,9.62a1.66,1.66,0,0,0-.9,1.16L102,134l.32-.07,27.84-5.76a1.62,1.62,0,0,0,1.18-1L140.55,106a1.67,1.67,0,0,0-.35-1.84l-.2-.2,8.7-.79a6,6,0,0,0,3.86-1.91l40.24-44a5.08,5.08,0,0,0,1.32-3.08l.69-10.45A2.43,2.43,0,0,0,192.22,41.19Z"/><line class="cls-3" x1="116" y1="119" x2="102" y2="134"/><path class="cls-3" d="M134,85s11,5,16,15"/><path class="cls-3" d="M179,46s9,2,12,11"/><circle class="cls-4" cx="150.5" cy="51.5" r="5.5"/><circle class="cls-4" cx="149.5" cy="132.5" r="5.5"/><line class="cls-3" x1="114.67" y1="118.24" x2="117" y2="120"/></g></svg>
